# This file uses centimeters as units for non-parametric coordinates.

mtllib spike.mtl
g default
v -1.657208 0.341282 1.657208
v 3.517654 0.341282 3.559259
v -1.657208 2.295157 1.657208
v 3.517654 2.295157 3.559259
v 1.657208 2.295157 -1.657208
v 1.657208 0.341282 -1.657208
v -1.467292 2.295157 1.141139
v -0.889049 2.295157 0.236011
v -0.884305 0.341282 0.230987
v -1.463758 0.341282 1.135341
v -0.022706 2.295157 -0.632114
v 0.849835 2.295157 -1.258447
v 0.855422 0.341282 -1.262534
v -0.017634 0.341282 -0.636919
vt 0.375000 0.000000
vt 0.625000 0.000000
vt 0.375000 0.250000
vt 0.875000 0.000000
vt 0.875000 0.250000
vt 0.625000 0.250000
vt 0.625000 0.500000
vt 0.585234 0.460234
vt 0.532162 0.407162
vt 0.466743 0.341743
vt 0.406212 0.281212
vt 0.375000 1.000000
vt 0.406592 0.968408
vt 0.467112 0.907888
vt 0.532534 0.842466
vt 0.585581 0.789419
vt 0.625000 0.750000
vt 0.625000 1.000000
vt 0.000000 0.875154
vt 0.707107 1.000000
vt 0.000000 1.000000
vt 0.707107 0.631551
vt 0.000000 0.371352
vt 0.000000 0.000000
vt 0.707107 0.000000
vt 0.707107 0.157674
vt 0.000000 0.633028
vt 0.707107 0.873630
vt 0.000000 0.159064
vt 0.707107 0.369865
vn -0.344990 0.000000 0.938606
vn -0.344990 0.000000 0.938606
vn -0.344990 0.000000 0.938606
vn -0.344990 0.000000 0.938606
vn 0.941889 0.000000 -0.335924
vn 0.941889 0.000000 -0.335924
vn 0.941889 0.000000 -0.335924
vn 0.941889 0.000000 -0.335924
vn -0.076368 0.996681 -0.028207
vn 0.000000 1.000000 -0.000000
vn -0.062594 0.989933 -0.126946
vn -0.078734 0.988500 -0.129104
vn 0.000000 1.000000 -0.000000
vn 0.000000 1.000000 -0.000000
vn -0.111872 0.991877 -0.060528
vn -0.076477 -0.996671 -0.028247
vn -0.111903 -0.991871 -0.060582
vn 0.000000 -1.000000 -0.000000
vn 0.000000 -1.000000 -0.000000
vn -0.078705 -0.988501 -0.129120
vn -0.062542 -0.989949 -0.126842
vn 0.000000 -1.000000 -0.000000
vn -0.774956 -0.000137 -0.632015
vn -0.775135 -0.000138 -0.631796
vn -0.651667 0.000121 -0.758505
vn -0.651502 0.000122 -0.758647
s off
g pCube1
usemtl initialShadingGroup
f 1/1/1 2/2/2 4/6/3 3/3/4
f 2/2/5 6/4/6 5/5/7 4/6/8
s 1
f 3/3/9 4/6/10 5/7/11 12/8/12 11/9/13 8/10/14 7/11/15
f 1/12/16 10/13/17 9/14/18 14/15/19 13/16/20 6/17/21 2/18/22
f 7/19/15 10/28/17 1/20/16 3/21/9
f 5/24/11 6/25/21 13/26/20 12/29/12
f 9/22/23 8/27/24 11/23/25 14/30/26
f 7/19/15 8/27/24 9/22/23 10/28/17
f 11/23/25 12/29/12 13/26/20 14/30/26
