{"asset":{"version":"2.0","generator":"babylon.js glTF exporter for Maya 2018 v20191010.2"},"scene":0,"scenes":[{"nodes":[0,3,5,8],"extensions":{}}],"nodes":[{"children":[1,2],"translation":[0.0,1.6895088,0.0],"rotation":[0.191796929,0.0,0.0,0.981434643],"scale":[2.4131093,2.02892637,3.809388],"name":"pCube1"},{"mesh":0,"translation":[0.0,0.0,0.0],"rotation":[0.0,0.0,0.0,1.0],"scale":[1.0,1.0,1.0],"name":"polySurface1"},{"mesh":1,"translation":[0.0,0.0,0.0],"rotation":[0.0,0.0,0.0,1.0],"scale":[1.0,1.0,1.0],"name":"polySurface2"},{"children":[4],"translation":[0.0,0.0,0.0],"rotation":[0.0,0.0,0.0,1.0],"scale":[1.0,1.0,1.0],"name":"group"},{"mesh":2,"translation":[-1.78022981,2.12104177,-1.043953],"rotation":[6.54603355E-05,-0.1071472,-0.00064111437,0.994242966],"scale":[1.0,0.433363855,0.653275251],"name":"pasted__pCube2"},{"children":[6],"translation":[-0.113082334,0.0,0.0],"rotation":[0.0,1.0,0.0,6.123234E-17],"scale":[1.0,1.0,-1.0],"name":"group1"},{"children":[7],"translation":[0.0,0.0,0.0],"rotation":[0.0,0.0,0.0,1.0],"scale":[1.0,1.0,1.0],"name":"pasted__group"},{"mesh":3,"translation":[-1.78022981,2.12104177,-1.043953],"rotation":[6.54603355E-05,-0.1071472,-0.00064111437,0.994242966],"scale":[1.0,0.433363855,0.653275251],"name":"pasted__pasted__pCube2"},{"translation":[0.0,0.0,0.0],"rotation":[0.0,0.0,0.0,1.0],"scale":[1.0,1.0,1.0],"name":"Default light"}],"meshes":[{"primitives":[{"attributes":{"POSITION":1,"TANGENT":2,"NORMAL":3,"TEXCOORD_0":4},"indices":0,"mode":4,"material":0}],"name":"polySurface1"},{"primitives":[{"attributes":{"POSITION":6,"TANGENT":7,"NORMAL":8,"TEXCOORD_0":9},"indices":5,"mode":4,"material":1}],"name":"polySurface2"},{"primitives":[{"attributes":{"POSITION":11,"TANGENT":12,"NORMAL":13,"TEXCOORD_0":14},"indices":10,"mode":4,"material":0}],"name":"pasted__pCube2"},{"primitives":[{"attributes":{"POSITION":16,"TANGENT":17,"NORMAL":18,"TEXCOORD_0":19},"indices":15,"mode":4,"material":0}],"name":"pasted__pasted__pCube2"}],"accessors":[{"bufferView":0,"componentType":5123,"count":1170,"type":"SCALAR","name":"accessorIndices"},{"bufferView":1,"componentType":5126,"count":384,"max":[0.499999881,1.25061584,1.34736848],"min":[-0.499999881,-0.7048665,-1.30273831],"type":"VEC3","name":"accessorPositions"},{"bufferView":2,"componentType":5126,"count":384,"type":"VEC4","name":"accessorTangents"},{"bufferView":1,"byteOffset":4608,"componentType":5126,"count":384,"type":"VEC3","name":"accessorNormals"},{"bufferView":3,"componentType":5126,"count":384,"type":"VEC2","name":"accessorUVs"},{"bufferView":0,"byteOffset":2340,"componentType":5123,"count":222,"type":"SCALAR","name":"accessorIndices"},{"bufferView":1,"byteOffset":9216,"componentType":5126,"count":81,"max":[0.132750437,-0.167531878,-1.16727829],"min":[-0.132749856,-0.70675087,-1.47700274],"type":"VEC3","name":"accessorPositions"},{"bufferView":2,"byteOffset":6144,"componentType":5126,"count":81,"type":"VEC4","name":"accessorTangents"},{"bufferView":1,"byteOffset":10188,"componentType":5126,"count":81,"type":"VEC3","name":"accessorNormals"},{"bufferView":3,"byteOffset":3072,"componentType":5126,"count":81,"type":"VEC2","name":"accessorUVs"},{"bufferView":0,"byteOffset":2784,"componentType":5123,"count":759,"type":"SCALAR","name":"accessorIndices"},{"bufferView":1,"byteOffset":11160,"componentType":5126,"count":367,"max":[0.9634721,0.5287661,4.469529],"min":[-4.816966,-0.500533044,-0.8410988],"type":"VEC3","name":"accessorPositions"},{"bufferView":2,"byteOffset":7440,"componentType":5126,"count":367,"type":"VEC4","name":"accessorTangents"},{"bufferView":1,"byteOffset":15564,"componentType":5126,"count":367,"type":"VEC3","name":"accessorNormals"},{"bufferView":3,"byteOffset":3720,"componentType":5126,"count":367,"type":"VEC2","name":"accessorUVs"},{"bufferView":0,"byteOffset":4304,"componentType":5123,"count":759,"type":"SCALAR","name":"accessorIndices"},{"bufferView":1,"byteOffset":19968,"componentType":5126,"count":367,"max":[0.9634721,0.5287661,4.469529],"min":[-4.816966,-0.500533044,-0.8410988],"type":"VEC3","name":"accessorPositions"},{"bufferView":2,"byteOffset":13312,"componentType":5126,"count":367,"type":"VEC4","name":"accessorTangents"},{"bufferView":1,"byteOffset":24372,"componentType":5126,"count":367,"type":"VEC3","name":"accessorNormals"},{"bufferView":3,"byteOffset":6656,"componentType":5126,"count":367,"type":"VEC2","name":"accessorUVs"},{"bufferView":4,"componentType":5126,"count":2,"max":[3.9333334],"min":[0.933333337],"type":"SCALAR","name":"accessorAnimationInput"},{"bufferView":5,"componentType":5126,"count":2,"type":"VEC3","name":"accessorAnimationPositions"},{"bufferView":4,"byteOffset":8,"componentType":5126,"count":5,"max":[3.9333334],"min":[0.0],"type":"SCALAR","name":"accessorAnimationInput"},{"bufferView":6,"componentType":5126,"count":5,"type":"VEC4","name":"accessorAnimationRotations"},{"bufferView":4,"byteOffset":28,"componentType":5126,"count":2,"max":[3.9333334],"min":[0.933333337],"type":"SCALAR","name":"accessorAnimationInput"},{"bufferView":5,"byteOffset":24,"componentType":5126,"count":2,"type":"VEC3","name":"accessorAnimationScales"},{"bufferView":4,"byteOffset":36,"componentType":5126,"count":2,"max":[3.9333334],"min":[0.933333337],"type":"SCALAR","name":"accessorAnimationInput"},{"bufferView":5,"byteOffset":48,"componentType":5126,"count":2,"type":"VEC3","name":"accessorAnimationPositions"},{"bufferView":4,"byteOffset":44,"componentType":5126,"count":5,"max":[3.9333334],"min":[0.0],"type":"SCALAR","name":"accessorAnimationInput"},{"bufferView":6,"byteOffset":80,"componentType":5126,"count":5,"type":"VEC4","name":"accessorAnimationRotations"},{"bufferView":4,"byteOffset":64,"componentType":5126,"count":2,"max":[3.9333334],"min":[0.933333337],"type":"SCALAR","name":"accessorAnimationInput"},{"bufferView":5,"byteOffset":72,"componentType":5126,"count":2,"type":"VEC3","name":"accessorAnimationScales"}],"bufferViews":[{"buffer":0,"byteLength":5824,"name":"bufferViewScalar"},{"buffer":0,"byteOffset":5824,"byteLength":28776,"byteStride":12,"name":"bufferViewFloatVec3"},{"buffer":0,"byteOffset":34600,"byteLength":19184,"byteStride":16,"name":"bufferViewFloatVec4"},{"buffer":0,"byteOffset":53784,"byteLength":9592,"byteStride":8,"name":"bufferViewFloatVec2"},{"buffer":0,"byteOffset":63376,"byteLength":72,"name":"bufferViewAnimationFloatScalar"},{"buffer":0,"byteOffset":63448,"byteLength":96,"name":"bufferViewAnimationFloatVec3"},{"buffer":0,"byteOffset":63544,"byteLength":160,"name":"bufferViewAnimationFloatVec4"}],"buffers":[{"uri":"bird.bin","byteLength":63704}],"materials":[{"pbrMetallicRoughness":{"baseColorFactor":[0.314,0.269886762,0.23864001,1.0],"metallicFactor":0.0,"roughnessFactor":0.450053632},"emissiveFactor":[0.0,0.0,0.0],"alphaMode":"OPAQUE","name":"lambert2"},{"pbrMetallicRoughness":{"baseColorFactor":[0.328,0.267086744,0.0505119972,1.0],"metallicFactor":0.0,"roughnessFactor":0.450053632},"emissiveFactor":[0.0,0.0,0.0],"alphaMode":"OPAQUE","name":"lambert3"}],"animations":[{"channels":[{"sampler":0,"target":{"node":4,"path":"translation"}},{"sampler":1,"target":{"node":4,"path":"rotation"}},{"sampler":2,"target":{"node":4,"path":"scale"}},{"sampler":3,"target":{"node":7,"path":"translation"}},{"sampler":4,"target":{"node":7,"path":"rotation"}},{"sampler":5,"target":{"node":7,"path":"scale"}}],"samplers":[{"input":20,"interpolation":"LINEAR","output":21},{"input":22,"interpolation":"LINEAR","output":23},{"input":24,"interpolation":"LINEAR","output":25},{"input":26,"interpolation":"LINEAR","output":27},{"input":28,"interpolation":"LINEAR","output":29},{"input":30,"interpolation":"LINEAR","output":31}],"name":"flap"}]}