{"asset":{"version":"2.0","generator":"babylon.js glTF exporter for Maya 2018 v20191010.2"},"scene":0,"scenes":[{"nodes":[0,30],"extensions":{}}],"nodes":[{"children":[1],"translation":[0.0,8.085085,0.0],"rotation":[0.0,0.0,-0.707106769,0.707106769],"scale":[2.87670875,1.04792428,2.87670875],"name":"pCube1"},{"children":[2,29],"translation":[0.0,0.0,0.0],"rotation":[0.0,0.0,0.0,1.0],"scale":[1.0,1.0,1.0],"name":"group1"},{"children":[3,4],"translation":[0.0,-2.220446E-16,0.0],"rotation":[0.0,0.0,0.0,1.0],"scale":[1.0,1.0,1.0],"name":"polySurface1"},{"mesh":0,"translation":[0.0,0.0,0.0],"rotation":[0.0,0.0,0.0,1.0],"scale":[1.0,1.0,1.0],"name":"polySurface3"},{"children":[5,6],"translation":[0.0,0.0,0.0],"rotation":[0.0,0.0,0.0,1.0],"scale":[1.0,1.0,1.0],"name":"polySurface4"},{"mesh":1,"translation":[0.0,0.0,0.0],"rotation":[0.0,0.0,0.0,1.0],"scale":[1.0,1.0,1.0],"name":"polySurface5"},{"children":[7,8],"translation":[0.0,0.0,0.0],"rotation":[0.0,0.0,0.0,1.0],"scale":[1.0,1.0,1.0],"name":"polySurface6"},{"mesh":2,"translation":[0.0,0.0,0.0],"rotation":[0.0,0.0,0.0,1.0],"scale":[1.0,1.0,1.0],"name":"polySurface7"},{"children":[9,10],"translation":[0.0,0.0,0.0],"rotation":[0.0,0.0,0.0,1.0],"scale":[1.0,1.0,1.0],"name":"polySurface8"},{"mesh":3,"translation":[0.0,0.0,0.0],"rotation":[0.0,0.0,0.0,1.0],"scale":[1.0,1.0,1.0],"name":"polySurface9"},{"children":[11,12],"translation":[0.0,0.0,0.0],"rotation":[0.0,0.0,0.0,1.0],"scale":[1.0,1.0,1.0],"name":"polySurface10"},{"mesh":4,"translation":[0.0,0.0,0.0],"rotation":[0.0,0.0,0.0,1.0],"scale":[1.0,1.0,1.0],"name":"polySurface11"},{"children":[13,14],"translation":[0.0,0.0,0.0],"rotation":[0.0,0.0,0.0,1.0],"scale":[1.0,1.0,1.0],"name":"polySurface12"},{"mesh":5,"translation":[0.0,0.0,0.0],"rotation":[0.0,0.0,0.0,1.0],"scale":[1.0,1.0,1.0],"name":"polySurface13"},{"children":[15,16],"translation":[0.0,0.0,0.0],"rotation":[0.0,0.0,0.0,1.0],"scale":[1.0,1.0,1.0],"name":"polySurface14"},{"mesh":6,"translation":[0.0,0.0,0.0],"rotation":[0.0,0.0,0.0,1.0],"scale":[1.0,1.0,1.0],"name":"polySurface15"},{"children":[17,18,20],"translation":[0.0,0.0,0.0],"rotation":[0.0,0.0,0.0,1.0],"scale":[1.0,1.0,1.0],"name":"polySurface16"},{"mesh":7,"translation":[0.0,0.0,0.0],"rotation":[0.0,0.0,0.0,1.0],"scale":[1.0,1.0,1.0],"name":"polySurface18"},{"children":[19],"translation":[0.0,0.0,0.0],"rotation":[0.0,0.0,0.0,1.0],"scale":[1.0,1.0,1.0],"name":"polySurface19"},{"mesh":8,"translation":[0.0,0.0,0.0],"rotation":[0.0,0.0,0.0,1.0],"scale":[1.0,1.0,1.0],"name":"polySurface20"},{"children":[21,28],"translation":[0.0,0.0,0.0],"rotation":[0.0,0.0,0.0,1.0],"scale":[1.0,1.0,1.0],"name":"group2"},{"children":[22,23,24,25,26,27],"translation":[0.0,0.0,0.0],"rotation":[0.0,0.0,0.0,1.0],"scale":[1.0,1.0,1.0],"name":"polySurface21"},{"mesh":9,"translation":[0.0,0.0,0.0],"rotation":[0.0,0.0,0.0,1.0],"scale":[1.0,1.0,1.0],"name":"polySurface22"},{"mesh":10,"translation":[0.0,0.0,0.0],"rotation":[0.0,0.0,0.0,1.0],"scale":[1.0,1.0,1.0],"name":"polySurface23"},{"mesh":11,"translation":[0.0,0.0,0.0],"rotation":[0.0,0.0,0.0,1.0],"scale":[1.0,1.0,1.0],"name":"polySurface24"},{"mesh":12,"translation":[0.0,0.0,0.0],"rotation":[0.0,0.0,0.0,1.0],"scale":[1.0,1.0,1.0],"name":"polySurface25"},{"mesh":13,"translation":[0.0,0.0,0.0],"rotation":[0.0,0.0,0.0,1.0],"scale":[1.0,1.0,1.0],"name":"polySurface26"},{"mesh":14,"translation":[0.0,0.0,0.0],"rotation":[0.0,0.0,0.0,1.0],"scale":[1.0,1.0,1.0],"name":"polySurface27"},{"mesh":15,"translation":[0.0,0.0,0.0],"rotation":[0.0,0.0,0.0,1.0],"scale":[1.0,1.0,1.0],"name":"polySurface17"},{"mesh":16,"translation":[0.0,-2.220446E-16,0.0],"rotation":[0.0,0.0,0.0,1.0],"scale":[1.0,1.0,1.0],"name":"polySurface2"},{"translation":[0.0,0.0,0.0],"rotation":[0.0,0.0,0.0,1.0],"scale":[1.0,1.0,1.0],"name":"Default light"}],"meshes":[{"primitives":[{"attributes":{"POSITION":1,"TANGENT":2,"NORMAL":3,"TEXCOORD_0":4},"indices":0,"mode":4,"material":0}],"name":"polySurface3"},{"primitives":[{"attributes":{"POSITION":6,"TANGENT":7,"NORMAL":8,"TEXCOORD_0":9},"indices":5,"mode":4,"material":0}],"name":"polySurface5"},{"primitives":[{"attributes":{"POSITION":11,"TANGENT":12,"NORMAL":13,"TEXCOORD_0":14},"indices":10,"mode":4,"material":0}],"name":"polySurface7"},{"primitives":[{"attributes":{"POSITION":16,"TANGENT":17,"NORMAL":18,"TEXCOORD_0":19},"indices":15,"mode":4,"material":0}],"name":"polySurface9"},{"primitives":[{"attributes":{"POSITION":21,"TANGENT":22,"NORMAL":23,"TEXCOORD_0":24},"indices":20,"mode":4,"material":0}],"name":"polySurface11"},{"primitives":[{"attributes":{"POSITION":26,"TANGENT":27,"NORMAL":28,"TEXCOORD_0":29},"indices":25,"mode":4,"material":0}],"name":"polySurface13"},{"primitives":[{"attributes":{"POSITION":31,"TANGENT":32,"NORMAL":33,"TEXCOORD_0":34},"indices":30,"mode":4,"material":0}],"name":"polySurface15"},{"primitives":[{"attributes":{"POSITION":36,"TANGENT":37,"NORMAL":38,"TEXCOORD_0":39},"indices":35,"mode":4,"material":0}],"name":"polySurface18"},{"primitives":[{"attributes":{"POSITION":41,"TANGENT":42,"NORMAL":43,"TEXCOORD_0":44},"indices":40,"mode":4,"material":0}],"name":"polySurface20"},{"primitives":[{"attributes":{"POSITION":46,"TANGENT":47,"NORMAL":48,"TEXCOORD_0":49},"indices":45,"mode":4,"material":1}],"name":"polySurface22"},{"primitives":[{"attributes":{"POSITION":51,"TANGENT":52,"NORMAL":53,"TEXCOORD_0":54},"indices":50,"mode":4,"material":1}],"name":"polySurface23"},{"primitives":[{"attributes":{"POSITION":56,"TANGENT":57,"NORMAL":58,"TEXCOORD_0":59},"indices":55,"mode":4,"material":1}],"name":"polySurface24"},{"primitives":[{"attributes":{"POSITION":61,"TANGENT":62,"NORMAL":63,"TEXCOORD_0":64},"indices":60,"mode":4,"material":1}],"name":"polySurface25"},{"primitives":[{"attributes":{"POSITION":66,"TANGENT":67,"NORMAL":68,"TEXCOORD_0":69},"indices":65,"mode":4,"material":1}],"name":"polySurface26"},{"primitives":[{"attributes":{"POSITION":71,"TANGENT":72,"NORMAL":73,"TEXCOORD_0":74},"indices":70,"mode":4,"material":2}],"name":"polySurface27"},{"primitives":[{"attributes":{"POSITION":76,"TANGENT":77,"NORMAL":78,"TEXCOORD_0":79},"indices":75,"mode":4,"material":2}],"name":"polySurface17"},{"primitives":[{"attributes":{"POSITION":81,"TANGENT":82,"NORMAL":83,"TEXCOORD_0":84},"indices":80,"mode":4,"material":2}],"name":"polySurface2"}],"accessors":[{"bufferView":0,"componentType":5123,"count":108,"type":"SCALAR","name":"accessorIndices"},{"bufferView":1,"componentType":5126,"count":44,"max":[-0.314552784,0.436657846,-0.6718767],"min":[-0.4680581,-0.454531521,-0.9816999],"type":"VEC3","name":"accessorPositions"},{"bufferView":2,"componentType":5126,"count":44,"type":"VEC4","name":"accessorTangents"},{"bufferView":1,"byteOffset":528,"componentType":5126,"count":44,"type":"VEC3","name":"accessorNormals"},{"bufferView":3,"componentType":5126,"count":44,"type":"VEC2","name":"accessorUVs"},{"bufferView":0,"byteOffset":216,"componentType":5123,"count":108,"type":"SCALAR","name":"accessorIndices"},{"bufferView":1,"byteOffset":1056,"componentType":5126,"count":44,"max":[-0.9488356,0.326313227,-0.270909578],"min":[-1.1078763,-0.429082125,-0.5345147],"type":"VEC3","name":"accessorPositions"},{"bufferView":2,"byteOffset":704,"componentType":5126,"count":44,"type":"VEC4","name":"accessorTangents"},{"bufferView":1,"byteOffset":1584,"componentType":5126,"count":44,"type":"VEC3","name":"accessorNormals"},{"bufferView":3,"byteOffset":352,"componentType":5126,"count":44,"type":"VEC2","name":"accessorUVs"},{"bufferView":0,"byteOffset":432,"componentType":5123,"count":108,"type":"SCALAR","name":"accessorIndices"},{"bufferView":1,"byteOffset":2112,"componentType":5126,"count":44,"max":[-1.30253649,-0.065948844,-0.285897821],"min":[-1.45327663,-0.798383236,-0.5258399],"type":"VEC3","name":"accessorPositions"},{"bufferView":2,"byteOffset":1408,"componentType":5126,"count":44,"type":"VEC4","name":"accessorTangents"},{"bufferView":1,"byteOffset":2640,"componentType":5126,"count":44,"type":"VEC3","name":"accessorNormals"},{"bufferView":3,"byteOffset":704,"componentType":5126,"count":44,"type":"VEC2","name":"accessorUVs"},{"bufferView":0,"byteOffset":648,"componentType":5123,"count":108,"type":"SCALAR","name":"accessorIndices"},{"bufferView":1,"byteOffset":3168,"componentType":5126,"count":44,"max":[-1.32544231,-0.08087468,-0.00166168134],"min":[-1.48947191,-0.86736834,-0.248338342],"type":"VEC3","name":"accessorPositions"},{"bufferView":2,"byteOffset":2112,"componentType":5126,"count":44,"type":"VEC4","name":"accessorTangents"},{"bufferView":1,"byteOffset":3696,"componentType":5126,"count":44,"type":"VEC3","name":"accessorNormals"},{"bufferView":3,"byteOffset":1056,"componentType":5126,"count":44,"type":"VEC2","name":"accessorUVs"},{"bufferView":0,"byteOffset":864,"componentType":5123,"count":108,"type":"SCALAR","name":"accessorIndices"},{"bufferView":1,"byteOffset":4224,"componentType":5126,"count":44,"max":[-0.9787841,0.30239144,0.00309033482],"min":[-1.14811063,-0.502653241,-0.253090322],"type":"VEC3","name":"accessorPositions"},{"bufferView":2,"byteOffset":2816,"componentType":5126,"count":44,"type":"VEC4","name":"accessorTangents"},{"bufferView":1,"byteOffset":4752,"componentType":5126,"count":44,"type":"VEC3","name":"accessorNormals"},{"bufferView":3,"byteOffset":1408,"componentType":5126,"count":44,"type":"VEC2","name":"accessorUVs"},{"bufferView":0,"byteOffset":1080,"componentType":5123,"count":108,"type":"SCALAR","name":"accessorIndices"},{"bufferView":1,"byteOffset":5280,"componentType":5126,"count":44,"max":[-0.8033056,0.4717916,0.538108945],"min":[-0.9885447,-0.368441075,0.288963556],"type":"VEC3","name":"accessorPositions"},{"bufferView":2,"byteOffset":3520,"componentType":5126,"count":44,"type":"VEC4","name":"accessorTangents"},{"bufferView":1,"byteOffset":5808,"componentType":5126,"count":44,"type":"VEC3","name":"accessorNormals"},{"bufferView":3,"byteOffset":1760,"componentType":5126,"count":44,"type":"VEC2","name":"accessorUVs"},{"bufferView":0,"byteOffset":1296,"componentType":5123,"count":108,"type":"SCALAR","name":"accessorIndices"},{"bufferView":1,"byteOffset":6336,"componentType":5126,"count":44,"max":[-1.08518434,0.138617069,0.504701138],"min":[-1.248107,-0.6384811,0.2860396],"type":"VEC3","name":"accessorPositions"},{"bufferView":2,"byteOffset":4224,"componentType":5126,"count":44,"type":"VEC4","name":"accessorTangents"},{"bufferView":1,"byteOffset":6864,"componentType":5126,"count":44,"type":"VEC3","name":"accessorNormals"},{"bufferView":3,"byteOffset":2112,"componentType":5126,"count":44,"type":"VEC2","name":"accessorUVs"},{"bufferView":0,"byteOffset":1512,"componentType":5123,"count":108,"type":"SCALAR","name":"accessorIndices"},{"bufferView":1,"byteOffset":7392,"componentType":5126,"count":44,"max":[-1.29064465,-0.0843184,0.2601496],"min":[-1.43723345,-0.8540909,0.0157801472],"type":"VEC3","name":"accessorPositions"},{"bufferView":2,"byteOffset":4928,"componentType":5126,"count":44,"type":"VEC4","name":"accessorTangents"},{"bufferView":1,"byteOffset":7920,"componentType":5126,"count":44,"type":"VEC3","name":"accessorNormals"},{"bufferView":3,"byteOffset":2464,"componentType":5126,"count":44,"type":"VEC2","name":"accessorUVs"},{"bufferView":0,"byteOffset":1728,"componentType":5123,"count":120,"type":"SCALAR","name":"accessorIndices"},{"bufferView":1,"byteOffset":8448,"componentType":5126,"count":54,"max":[-0.921492338,0.3264281,0.269059241],"min":[-1.09056091,-0.483862936,0.00280103227],"type":"VEC3","name":"accessorPositions"},{"bufferView":2,"byteOffset":5632,"componentType":5126,"count":54,"type":"VEC4","name":"accessorTangents"},{"bufferView":1,"byteOffset":9096,"componentType":5126,"count":54,"type":"VEC3","name":"accessorNormals"},{"bufferView":3,"byteOffset":2816,"componentType":5126,"count":54,"type":"VEC2","name":"accessorUVs"},{"bufferView":0,"byteOffset":1968,"componentType":5123,"count":84,"type":"SCALAR","name":"accessorIndices"},{"bufferView":1,"byteOffset":9744,"componentType":5126,"count":46,"max":[-0.390730143,0.315727,-0.7161513],"min":[-0.7039087,-0.3984288,-0.9445729],"type":"VEC3","name":"accessorPositions"},{"bufferView":2,"byteOffset":6496,"componentType":5126,"count":46,"type":"VEC4","name":"accessorTangents"},{"bufferView":1,"byteOffset":10296,"componentType":5126,"count":46,"type":"VEC3","name":"accessorNormals"},{"bufferView":3,"byteOffset":3248,"componentType":5126,"count":46,"type":"VEC2","name":"accessorUVs"},{"bufferView":0,"byteOffset":2136,"componentType":5123,"count":84,"type":"SCALAR","name":"accessorIndices"},{"bufferView":1,"byteOffset":10848,"componentType":5126,"count":46,"max":[-1.3612442,-0.146143243,-0.304318279],"min":[-1.67052126,-0.878282666,-0.507419467],"type":"VEC3","name":"accessorPositions"},{"bufferView":2,"byteOffset":7232,"componentType":5126,"count":46,"type":"VEC4","name":"accessorTangents"},{"bufferView":1,"byteOffset":11400,"componentType":5126,"count":46,"type":"VEC3","name":"accessorNormals"},{"bufferView":3,"byteOffset":3616,"componentType":5126,"count":46,"type":"VEC2","name":"accessorUVs"},{"bufferView":0,"byteOffset":2304,"componentType":5123,"count":84,"type":"SCALAR","name":"accessorIndices"},{"bufferView":1,"byteOffset":11952,"componentType":5126,"count":46,"max":[-1.39063168,-0.165816665,-0.0171006117],"min":[-1.7736125,-1.022923,-0.2328994],"type":"VEC3","name":"accessorPositions"},{"bufferView":2,"byteOffset":7968,"componentType":5126,"count":46,"type":"VEC4","name":"accessorTangents"},{"bufferView":1,"byteOffset":12504,"componentType":5126,"count":46,"type":"VEC3","name":"accessorNormals"},{"bufferView":3,"byteOffset":3984,"componentType":5126,"count":46,"type":"VEC2","name":"accessorUVs"},{"bufferView":0,"byteOffset":2472,"componentType":5123,"count":84,"type":"SCALAR","name":"accessorIndices"},{"bufferView":1,"byteOffset":13056,"componentType":5126,"count":46,"max":[-1.33872938,-0.155948475,0.23978278],"min":[-1.68988943,-0.9771076,0.0361469574],"type":"VEC3","name":"accessorPositions"},{"bufferView":2,"byteOffset":8704,"componentType":5126,"count":46,"type":"VEC4","name":"accessorTangents"},{"bufferView":1,"byteOffset":13608,"componentType":5126,"count":46,"type":"VEC3","name":"accessorNormals"},{"bufferView":3,"byteOffset":4352,"componentType":5126,"count":46,"type":"VEC2","name":"accessorUVs"},{"bufferView":0,"byteOffset":2640,"componentType":5123,"count":84,"type":"SCALAR","name":"accessorIndices"},{"bufferView":1,"byteOffset":14160,"componentType":5126,"count":46,"max":[-1.13429761,0.06902233,0.48364988],"min":[-1.4194355,-0.686141849,0.30208537],"type":"VEC3","name":"accessorPositions"},{"bufferView":2,"byteOffset":9440,"componentType":5126,"count":46,"type":"VEC4","name":"accessorTangents"},{"bufferView":1,"byteOffset":14712,"componentType":5126,"count":46,"type":"VEC3","name":"accessorNormals"},{"bufferView":3,"byteOffset":4720,"componentType":5126,"count":46,"type":"VEC2","name":"accessorUVs"},{"bufferView":0,"byteOffset":2808,"componentType":5123,"count":1251,"type":"SCALAR","name":"accessorIndices"},{"bufferView":1,"byteOffset":15264,"componentType":5126,"count":529,"max":[0.5,0.732158065,0.5276292],"min":[-1.42409229,-0.7822249,-0.950435],"type":"VEC3","name":"accessorPositions"},{"bufferView":2,"byteOffset":10176,"componentType":5126,"count":529,"type":"VEC4","name":"accessorTangents"},{"bufferView":1,"byteOffset":21612,"componentType":5126,"count":529,"type":"VEC3","name":"accessorNormals"},{"bufferView":3,"byteOffset":5088,"componentType":5126,"count":529,"type":"VEC2","name":"accessorUVs"},{"bufferView":0,"byteOffset":5312,"componentType":5123,"count":6,"type":"SCALAR","name":"accessorIndices"},{"bufferView":1,"byteOffset":27960,"componentType":5126,"count":4,"max":[-0.9649348,0.348629922,0.512802064],"min":[-1.19880247,0.100532264,0.3042012],"type":"VEC3","name":"accessorPositions"},{"bufferView":2,"byteOffset":18640,"componentType":5126,"count":4,"type":"VEC4","name":"accessorTangents"},{"bufferView":1,"byteOffset":28008,"componentType":5126,"count":4,"type":"VEC3","name":"accessorNormals"},{"bufferView":3,"byteOffset":9320,"componentType":5126,"count":4,"type":"VEC2","name":"accessorUVs"},{"bufferView":0,"byteOffset":5324,"componentType":5123,"count":288,"type":"SCALAR","name":"accessorIndices"},{"bufferView":1,"byteOffset":28056,"componentType":5126,"count":126,"max":[2.63859749,0.6233865,0.6296906],"min":[0.487883,-1.21049047,-0.9131618],"type":"VEC3","name":"accessorPositions"},{"bufferView":2,"byteOffset":18704,"componentType":5126,"count":126,"type":"VEC4","name":"accessorTangents"},{"bufferView":1,"byteOffset":29568,"componentType":5126,"count":126,"type":"VEC3","name":"accessorNormals"},{"bufferView":3,"byteOffset":9352,"componentType":5126,"count":126,"type":"VEC2","name":"accessorUVs"}],"bufferViews":[{"buffer":0,"byteLength":5900,"name":"bufferViewScalar"},{"buffer":0,"byteOffset":5900,"byteLength":31080,"byteStride":12,"name":"bufferViewFloatVec3"},{"buffer":0,"byteOffset":36980,"byteLength":20720,"byteStride":16,"name":"bufferViewFloatVec4"},{"buffer":0,"byteOffset":57700,"byteLength":10360,"byteStride":8,"name":"bufferViewFloatVec2"}],"buffers":[{"uri":"hand.bin","byteLength":68060}],"materials":[{"pbrMetallicRoughness":{"baseColorFactor":[0.202103,0.206981361,0.209,1.0],"metallicFactor":0.0,"roughnessFactor":0.217708334},"emissiveFactor":[0.0,0.0,0.0],"alphaMode":"OPAQUE","name":"blinn2"},{"pbrMetallicRoughness":{"baseColorFactor":[0.071511,0.146624342,0.1815,1.0],"metallicFactor":0.0,"roughnessFactor":0.179665864},"emissiveFactor":[0.0,0.0,0.0],"alphaMode":"OPAQUE","name":"blinn3"},{"pbrMetallicRoughness":{"baseColorFactor":[0.340771,0.3780671,0.3935,1.0],"metallicFactor":0.0,"roughnessFactor":0.17963171},"emissiveFactor":[0.0,0.0,0.0],"alphaMode":"OPAQUE","name":"blinn1"}]}